<?xml version="1.0"?><svg width="339.693" height="382.974" xmlns="http://www.w3.org/2000/svg">

 <metadata id="metadata7">image/svg+xml</metadata>
 <g>
  <title>Layer 1</title>
  <text xml:space="preserve" y="96.3422" x="18.349" transform="matrix(11.2953 0 0 15.1581 -38.9722 -1112.15)" text-anchor="middle" stroke-width="0" stroke="#000000" fill="#000000" font-size="24" font-family="Georgia" id="svg_1">K</text>
  <g transform="rotate(16.608 160.76 159.019)" id="layer1">
   <g id="g2422">
    <path d="m113.76297,255.403595c-4.210968,-2.229843 -8.465065,-4.176895 -12.367546,-7.035782c-8.339851,-6.506317 -15.395164,-14.035172 -21.518402,-22.710663c-7.026321,-9.906464 -9.180702,-21.252472 -9.383057,-33.197159c1.18335,-12.501099 7.484879,-22.316391 15.852921,-31.089767c10.198196,-8.975204 22.197548,-15.235046 35.313087,-18.207047c14.520294,-2.798965 28.867279,-0.455963 42.884216,3.568939c12.953842,4.224182 23.67778,12.032471 31.943832,22.901505c7.655701,11.965775 5.605789,24.189941 0.760437,36.707932c-7.515564,14.8694 -18.787674,27.222687 -29.15918,40.026062c-11.389862,12.931702 -20.311005,27.59848 -27.711319,43.168732c-2.532532,9.800079 -8.107635,20.452057 -6.735214,30.432037c0.116104,0.844299 -1.059799,1.01062 -1.173386,0.165436l0,0c-1.676758,-12.387939 -5.083344,-21.531128 2.559906,-33.363495c8.115112,-15.559265 18.852341,-29.377441 28.573715,-43.904129c9.015701,-12.902145 18.40123,-25.740952 25.217728,-40.025253c3.980423,-9.536636 5.702789,-18.903595 1.063126,-28.633606c-6.156418,-10.867325 -15.328842,-18.061005 -26.84639,-22.557831c-13.065796,-4.583038 -26.649017,-6.386505 -40.386505,-3.957382c-12.577332,2.856369 -24.603233,6.196548 -33.724243,16.167999c-7.377068,8.135071 -13.085678,17.376266 -13.910789,28.706268c-0.736374,11.090164 2.161873,21.285385 8.202179,30.594116c5.935013,8.04808 13.004425,15.334641 21.084709,21.160492c3.337761,2.529572 6.58017,6.221786 10.709045,7.126129c2.82196,0.617172 1.311859,5.312515 -1.248871,3.956467z" fill="#7f7f7f" id="path2318"/>
    <path d="m233.22081,26.395466c4.123886,-2.128542 8.571182,-3.117268 13.069107,-4.045177c9.358185,-1.526525 18.801758,-1.063011 28.099396,0.54628c9.090302,2.541431 15.730194,8.609577 21.857544,15.555023c5.39682,7.49929 6.960815,15.037437 3.574127,23.697704c-4.503693,9.293461 -13.610626,14.421917 -21.87085,19.796871c-10.191559,6.204941 -20.680878,11.86277 -31.082214,17.684402c-11.978653,6.036072 -22.706741,13.946579 -33.13797,22.359436c-11.958725,10.085464 -21.59137,22.423584 -29.776138,35.770691c-8.120117,12.548401 -12.197556,26.736435 -14.628952,41.389679c-2.308655,11.012527 -0.126877,21.458542 3.608109,31.796478c0.289413,0.800461 -0.823456,1.21666 -1.11203,0.416229l0,0c-3.783905,-10.51268 -5.631485,-21.376617 -5.298965,-32.623032c1.796173,-15.307617 7.095963,-29.374054 15.221863,-42.417236c8.614319,-13.407898 17.649902,-26.653671 29.567169,-37.293884c10.215622,-9.06382 21.228165,-17.196327 32.904083,-24.211853c10.140137,-5.908577 20.43457,-11.641579 29.950317,-18.565887c6.617462,-4.832916 13.161133,-9.941956 17.105103,-17.39056c1.875763,-5.559902 2.398193,-10.868992 -0.694092,-16.186588c-3.909119,-7.106682 -10.217285,-11.96409 -17.552094,-15.114262c-8.411133,-3.834913 -17.156494,-5.108999 -26.246796,-2.971184c-4.235046,1.045277 -8.484985,2.267859 -12.391617,4.275654c-1.698318,0.873058 -2.861755,-1.593231 -1.1651,-2.468784z" fill="#7f7f7f" id="path2324"/>
    <path d="m208.773483,157.507446c1.37738,-2.041641 3.972122,-2.889343 6.15889,-3.899963c6.112457,-2.917999 11.329315,-7.228287 16.202866,-11.912598c6.642349,-6.580658 11.488541,-14.467529 15.840469,-22.711502c3.642944,-8.150291 5.172058,-17.106049 4.905823,-26.020424c-0.96521,-6.11039 -2.131958,-12.280762 -7.624939,-15.565147c-0.72229,-0.432312 -0.118591,-1.474197 0.60199,-1.038559l0,0c7.103455,4.288368 13.799713,6.947144 13.095673,16.857811c-0.965271,9.623642 -4.910919,18.136101 -9.104401,26.723747c-4.006165,8.703293 -9.186523,16.781845 -15.558563,23.900345c-4.715134,5.304031 -9.657532,10.380966 -15.023636,15.008743c-1.730667,1.523178 -3.749908,3.590057 -5.975647,3.814667c-4.340317,0.439056 -5.988052,-1.496979 -3.518524,-5.15712z" fill="#7f7f7f" id="path2326"/>
    <path d="m147.357849,265.901947c0.73056,-2.803131 3.363464,-4.813507 5.206894,-7.065338c4.600723,-6.22438 7.274246,-13.267731 9.47261,-20.654694c1.592163,-8.591888 1.461151,-17.220047 -0.942047,-25.605911c-1.95787,-6.999405 -5.819717,-13.179901 -10.987656,-18.154663c-5.523682,-5.07605 -12.085587,-5.72197 -19.177399,-4.844727c-4.88765,0.762436 -8.958481,2.943268 -13.105576,5.515915c-0.715668,0.443298 -1.331787,-0.587601 -0.61615,-1.030838l0,0c4.261566,-2.636871 8.403687,-5.546387 13.063293,-7.43013c8.659943,-2.870651 17.120026,-3.503067 24.804749,2.399628c6.43338,6.113708 10.58049,13.456024 12.28627,22.334061c0.955307,9.374557 0.393066,18.614838 -2.924789,27.524185c-2.079773,7.66394 -4.521942,15.414856 -8.265198,22.404999c-1.461166,2.762695 -2.820313,6.185547 -5.734329,7.305176c-2.687607,1.033447 -3.817062,0.130005 -3.080673,-2.697662z" fill="#7f7f7f" id="path2372"/>
    <path d="m185.439835,215.113235c2.044952,-1.689468 3.283844,-4.056976 4.639694,-6.307129c3.507736,-5.984543 7.68721,-11.501358 11.990219,-16.905075c6.175507,-7.840393 13.055008,-15.035721 20.141846,-22.014099c7.129944,-5.743927 12.647003,-12.66066 18.104324,-19.948059c4.995483,-7.887695 11.168457,-11.260773 20.024109,-8.066666c4.604034,2.386063 6.154755,6.839005 8.458435,11.188156c0.618622,0.506592 1.237244,1.014023 1.856689,1.52063c0.652618,0.53447 0.702393,0.740448 0,1.205688l0,0c-0.765411,0.507462 -1.530792,1.014877 -2.296204,1.522293c-4.592438,2.820084 -9.977631,2.619965 -14.769928,0.076843c-1.563965,-3.621307 -5.546051,-2.512726 -9.1185,-1.814453c-8.568726,3.217773 -15.234283,8.318314 -21.435471,15.182678c-7.052841,6.943726 -13.8992,14.104477 -20.045639,21.906906c-4.270676,5.362274 -8.41864,10.83606 -11.899857,16.775055c-1.335098,2.217163 -2.921463,4.370209 -3.573257,6.914124c-0.428726,1.676056 -3.397491,-0.146057 -2.076462,-1.236893z" fill="#7f7f7f" id="path2374"/>
    <path d="m120.375458,148.137924c-1.970306,-0.17392 -3.95639,-0.417923 -5.944946,-0.559753c-6.153076,0.059937 -12.148613,1.920837 -17.97332,3.777512c-11.607124,4.815201 -21.894882,12.138855 -31.889099,19.714157c-13.586555,10.624985 -25.449261,23.262863 -34.461967,38.096786c-6.673592,10.524536 -0.391396,22.181259 -2.863327,32.849335c0.935143,1.404938 1.870232,2.810791 2.805378,4.215744c0.469769,0.70668 -0.514973,1.382996 -0.98209,0.674576l0,0c-0.96981,-1.469101 -1.939545,-2.939056 -2.909286,-4.409058c-11.666412,-9.101807 -4.761269,-23.880081 2.718727,-34.137756c9.607342,-14.594162 21.156517,-27.64241 34.985207,-38.257233c10.080444,-7.638611 20.458611,-15.019699 32.166901,-19.871216c5.838806,-2.776108 11.798676,-5.180771 18.154099,-6.421967c2.205841,-0.366425 4.550964,-0.751419 6.697906,-0.067535c2.933929,0.934692 2.558258,4.666611 -0.504181,4.396408z" fill="#7f7f7f" id="path2380"/>
    <path d="m172.985199,255.131714c2.050751,-2.256866 4.205994,-4.443695 6.476501,-6.484436c6.204498,-5.14444 11.552383,-11.095245 17.09848,-16.948944c5.679581,-7.585403 12.942215,-13.831787 19.787735,-20.317917c8.567062,-7.53978 16.179642,-9.511322 27.168137,-7.099014c1.549866,-1.18634 3.099731,-2.371719 4.649658,-3.558014c0.670044,-0.511642 1.381531,0.45256 0.711487,0.965012l0,0c-1.568939,1.19899 -3.137939,2.398758 -4.706848,3.598572c-2.635437,11.524185 -8.018127,17.23941 -18.883865,21.381668c-8.625107,2.853836 -16.877884,6.524979 -25.407623,9.621109c-7.088501,3.601089 -14.05011,7.305954 -19.582077,13.21373c-1.917252,2.185059 -3.798019,4.317825 -4.720978,7.142944c-0.666718,2.040741 -4.025208,0.064178 -2.590607,-1.514709z" fill="#7f7f7f" id="path2394"/>
    <path d="m285.350433,33.18129c-1.796997,-0.982792 -3.551697,-2.106583 -5.361145,-3.100355c-4.141327,-2.948389 -8.683167,-5.251707 -13.254028,-7.416552c-4.522766,-2.334572 -9.282715,-4.169273 -13.603973,-6.890549c-3.650391,-2.180878 -6.078491,-5.122517 -7.075256,-9.289253c0.674194,-6.302895 7.795044,-6.929386 12.751526,-7.855621c6.696259,-1.556934 13.534302,-1.425213 20.338379,-1.049484c4.743347,0.217834 9.086182,1.20063 12.645325,4.508698c3.532654,4.944355 -0.884796,8.034592 -5.384369,9.057922c-0.798553,0.323372 -1.597137,0.646744 -2.394897,0.97097c-0.778656,0.314941 -1.215668,-0.808868 -0.437012,-1.121265l0,0c0.758759,-0.305653 1.518372,-0.610447 2.277161,-0.915237c1.536621,-1.641376 2.879181,-3.037052 2.834412,-5.31842c-2.347656,-3.285259 -5.682922,-4.961262 -9.686584,-5.701725c-6.618286,-1.00222 -13.347717,-0.61129 -19.902161,0.737942c-3.689423,1.2327 -7.459198,2.374249 -9.227203,6.135712c0.564758,3.144268 2.176819,5.433231 4.799744,7.420773c4.108185,2.849602 8.457642,5.28717 12.995331,7.355774c4.509521,2.317667 9.048859,4.624363 13.796356,6.399157c2.027557,0.972635 4.248291,1.668367 5.980621,3.151834c1.921387,1.644773 0.119385,4.12962 -2.092224,2.919682z" fill="#7f7f7f" id="path2400"/>
   </g>
  </g>
  <rect height="26.9998" width="54.0005" y="111.537" x="98.392" transform="rotate(-89.4093 125.392 125.037)" stroke-width="0" stroke-linejoin="null" stroke-linecap="null" stroke-dasharray="null" stroke="#000000" fill="#000000" id="svg_2"/>
  <rect height="19.856" width="191.072" y="176.65" x="77.4461" transform="rotate(-56.5509 172.982 186.578)" stroke-width="0" stroke-linejoin="null" stroke-linecap="null" stroke-dasharray="null" stroke="#000000" fill="#000000" id="svg_3"/>
  <rect height="22" width="48" y="255.026" x="99.846" transform="rotate(90 123.846 266.026)" stroke-width="0" stroke-linejoin="null" stroke-linecap="null" stroke-dasharray="null" stroke="#000000" fill="#000000" id="svg_4"/>
 </g>
</svg>